<?xml version="1.0" encoding="UTF-8"?>
<svg id="Layer_1" data-name="Layer 1" xmlns="http://www.w3.org/2000/svg" viewBox="0 0 1000 240.71">
  <defs>
    <style>
      .cls-1 {
        fill: #ffd158;
      }
    </style>
  </defs>
  <path class="cls-1" d="M235.27,158.72c-14.12,47.99-59.29,82.19-113.55,82.19C50.82,240.91,0,184.76,0,120.14S48,0,121.4,0c66.82.31,104.77,49.56,113.87,83.44h-49.25c-7.22-16-27.92-42.03-64.93-42.35-45.17,0-74.34,37.96-74.34,79.05s30.43,79.67,74.66,79.67c41.41,0,60.23-32.62,64.62-41.09h49.25Z"/>
  <path class="cls-1" d="M269.45,4.39h70.26c36.07,0,56.78,5.65,69.33,14.74,19.13,13.8,29.49,37.33,29.49,63.05,0,16.94-4.71,32-12.55,43.29-10.04,14.74-23.21,21.33-38.27,25.09l51.76,85.95h-48.93l-62.43-107.91h9.1c15.37,0,31.99-.94,41.72-8.47,9.1-7.53,14.74-19.76,14.74-33.88s-6.9-26.98-17.25-33.57c-8.47-5.33-19.76-7.21-32.94-7.21h-27.29v169.92c0,11.66-9.45,21.11-21.11,21.11h-25.63V4.39Z"/>
  <path class="cls-1" d="M470.51,4.39h130.18v41.09h-83.44v52.7h81.87v41.09h-81.87v56.15h62.22c11.72,0,21.22,9.5,21.22,21.22v19.87h-130.18V4.39Z"/>
  <path class="cls-1" d="M672.21,236.52h-50.82L715.49,4.39h41.09l91.91,232.13h-51.13l-16.94-45.48h-91.6l-16.62,45.48ZM734,59.6l-32.94,94.11h66.82l-33.88-94.11Z"/>
  <path class="cls-1" d="M877.03,4.39h46.74v191.03h55.07c11.68,0,21.15,9.47,21.15,21.15v19.94h-122.97V4.39Z"/>
</svg>