<?xml version="1.0" encoding="UTF-8"?>
<svg id="Layer_1" data-name="Layer 1" xmlns="http://www.w3.org/2000/svg" viewBox="0 0 500 500">
  <defs>
    <style>
      .cls-1 {
        fill: #fff;
      }
    </style>
  </defs>
  <path class="cls-1" d="M250,0C111.93,0,0,111.93,0,250s111.93,250,250,250,250-111.93,250-250S388.07,0,250,0ZM395.72,353.05c-34.62,84.02-151.29,97.56-226.55,55.31C17.63,323.3,54.6,70.69,248.84,68.4c48.2-.57,117.67,18.42,144.71,58.93,24.08,36.08,10.77,81.42-40.97,75.13-59.72-7.26-70.48-133.82-148.13-90.94-97.29,53.72,9.47,322.8,145.13,218.06,8.81-6.8,29.91-34.33,34.18-35.95,36.13-13.69,17.49,45.97,11.95,59.43Z"/>
</svg>