<?xml version="1.0" encoding="UTF-8"?>
<svg id="Layer_1" data-name="Layer 1" xmlns="http://www.w3.org/2000/svg" viewBox="0 0 1000 264.72">
  <defs>
    <style>
      .cls-1 {
        fill: #1c3059;
      }
    </style>
  </defs>
  <path class="cls-1" d="M132.36,0C59.26,0,0,59.26,0,132.36s59.26,132.36,132.36,132.36,132.36-59.26,132.36-132.36S205.46,0,132.36,0ZM209.51,186.92c-18.33,44.48-80.1,51.65-119.94,29.28C9.34,171.17,28.91,37.43,131.75,36.21c25.52-.3,62.3,9.75,76.62,31.2,12.75,19.1,5.7,43.1-21.69,39.78-31.62-3.84-37.31-70.85-78.42-48.15-51.51,28.44,5.01,170.9,76.84,115.45,4.66-3.6,15.84-18.18,18.1-19.03,19.13-7.25,9.26,24.34,6.33,31.47Z"/>
  <g>
    <path class="cls-1" d="M478.19,158.47c-9.63,32.75-40.45,56.08-77.48,56.08-48.37,0-83.05-38.31-83.05-82.4s32.75-81.98,82.83-81.98c45.59.21,71.49,33.82,77.7,56.93h-33.61c-4.92-10.92-19.05-28.68-44.31-28.9-30.82,0-50.73,25.9-50.73,53.94s20.76,54.37,50.94,54.37c28.25,0,41.1-22.26,44.09-28.04h33.61Z"/>
    <path class="cls-1" d="M501.52,53.16h47.94c24.62,0,38.74,3.85,47.3,10.06,13.06,9.42,20.12,25.47,20.12,43.02,0,11.56-3.21,21.83-8.56,29.54-6.85,10.06-15.84,14.55-26.11,17.12l35.32,58.65h-33.39l-42.6-73.63h6.21c10.49,0,21.83-.64,28.47-5.78,6.21-5.14,10.06-13.49,10.06-23.12s-4.71-18.41-11.77-22.9c-5.78-3.64-13.49-4.92-22.48-4.92h-18.62v115.95c0,7.96-6.45,14.4-14.4,14.4h-17.49V53.16Z"/>
    <path class="cls-1" d="M638.71,53.16h88.83v28.04h-56.93v35.96h55.86v28.04h-55.86v38.31h42.46c8,0,14.48,6.48,14.48,14.48v13.56h-88.83V53.16Z"/>
    <path class="cls-1" d="M776.33,211.55h-34.67l64.21-158.39h28.04l62.71,158.39h-34.89l-11.56-31.04h-62.5l-11.34,31.04ZM818.5,90.84l-22.47,64.21h45.59l-23.12-64.21Z"/>
    <path class="cls-1" d="M916.1,53.16h31.89v130.35h37.58c7.97,0,14.43,6.46,14.43,14.43v13.61h-83.9V53.16Z"/>
  </g>
</svg>